<svg viewBox="0 0 760 460" xmlns="http://www.w3.org/2000/svg" role="img" aria-label="MoFlex vs MIVF file size, same source video (anime.mp4, 400x240, 30fps, ~62s)">
<rect width="760" height="460" fill="#fcfcfb"/>
<text x="64" y="28" font-family="system-ui,-apple-system,Segoe UI,sans-serif" font-size="17" font-weight="600" fill="#0b0b0b">Same source video, encoded size (MiB, lower is smaller)</text>
<line x1="64" y1="360.0" x2="736" y2="360.0" stroke="#e1e0d9" stroke-width="1"/>
<text x="54" y="364.0" font-family="system-ui,-apple-system,Segoe UI,sans-serif" font-size="12" text-anchor="end" fill="#898781">0</text>
<line x1="64" y1="284.0" x2="736" y2="284.0" stroke="#e1e0d9" stroke-width="1"/>
<text x="54" y="288.0" font-family="system-ui,-apple-system,Segoe UI,sans-serif" font-size="12" text-anchor="end" fill="#898781">5</text>
<line x1="64" y1="208.0" x2="736" y2="208.0" stroke="#e1e0d9" stroke-width="1"/>
<text x="54" y="212.0" font-family="system-ui,-apple-system,Segoe UI,sans-serif" font-size="12" text-anchor="end" fill="#898781">10</text>
<line x1="64" y1="132.0" x2="736" y2="132.0" stroke="#e1e0d9" stroke-width="1"/>
<text x="54" y="136.0" font-family="system-ui,-apple-system,Segoe UI,sans-serif" font-size="12" text-anchor="end" fill="#898781">15</text>
<line x1="64" y1="56.0" x2="736" y2="56.0" stroke="#e1e0d9" stroke-width="1"/>
<text x="54" y="60.0" font-family="system-ui,-apple-system,Segoe UI,sans-serif" font-size="12" text-anchor="end" fill="#898781">20</text>
<line x1="64" y1="360.0" x2="736" y2="360.0" stroke="#c3c2b7" stroke-width="1"/>
<path d="M103.19999999999999,360.0 L103.19999999999999,117.20781250000002 Q103.19999999999999,113.20781250000002 107.19999999999999,113.20781250000002 L155.2,113.20781250000002 Q159.2,113.20781250000002 159.2,117.20781250000002 L159.2,360.0 Z" fill="#eda100"/>
<text x="131.2" y="105.2" font-family="system-ui,-apple-system,Segoe UI,sans-serif" font-size="13" font-weight="600" text-anchor="middle" fill="#0b0b0b">16.2 MiB</text>
<text x="131.2" y="380.0" font-family="system-ui,-apple-system,Segoe UI,sans-serif" font-size="12" text-anchor="middle" fill="#0b0b0b">MoFlex</text>
<text x="131.2" y="394.0" font-family="system-ui,-apple-system,Segoe UI,sans-serif" font-size="12" text-anchor="middle" fill="#0b0b0b">(2-pass, ~1800kbps)</text>
<path d="M237.60000000000002,360.0 L237.60000000000002,112.21312255859377 Q237.60000000000002,108.21312255859377 241.60000000000002,108.21312255859377 L289.6,108.21312255859377 Q293.6,108.21312255859377 293.6,112.21312255859377 L293.6,360.0 Z" fill="#2a78d6"/>
<text x="265.6" y="100.2" font-family="system-ui,-apple-system,Segoe UI,sans-serif" font-size="13" font-weight="600" text-anchor="middle" fill="#0b0b0b">16.6 MiB</text>
<text x="265.6" y="380.0" font-family="system-ui,-apple-system,Segoe UI,sans-serif" font-size="12" text-anchor="middle" fill="#0b0b0b">MIVF</text>
<text x="265.6" y="394.0" font-family="system-ui,-apple-system,Segoe UI,sans-serif" font-size="12" text-anchor="middle" fill="#0b0b0b">high quality</text>
<path d="M372.0,360.0 L372.0,118.97804565429689 Q372.0,114.97804565429689 376.0,114.97804565429689 L424.0,114.97804565429689 Q428.0,114.97804565429689 428.0,118.97804565429689 L428.0,360.0 Z" fill="#2a78d6"/>
<text x="400.0" y="107.0" font-family="system-ui,-apple-system,Segoe UI,sans-serif" font-size="13" font-weight="600" text-anchor="middle" fill="#0b0b0b">16.1 MiB</text>
<text x="400.0" y="380.0" font-family="system-ui,-apple-system,Segoe UI,sans-serif" font-size="12" text-anchor="middle" fill="#0b0b0b">MIVF</text>
<text x="400.0" y="394.0" font-family="system-ui,-apple-system,Segoe UI,sans-serif" font-size="12" text-anchor="middle" fill="#0b0b0b">default</text>
<path d="M506.4000000000001,360.0 L506.4000000000001,186.51986236572267 Q506.4000000000001,182.51986236572267 510.4000000000001,182.51986236572267 L558.4000000000001,182.51986236572267 Q562.4000000000001,182.51986236572267 562.4000000000001,186.51986236572267 L562.4000000000001,360.0 Z" fill="#2a78d6"/>
<text x="534.4" y="174.5" font-family="system-ui,-apple-system,Segoe UI,sans-serif" font-size="13" font-weight="600" text-anchor="middle" fill="#0b0b0b">11.7 MiB</text>
<text x="534.4" y="380.0" font-family="system-ui,-apple-system,Segoe UI,sans-serif" font-size="12" text-anchor="middle" fill="#0b0b0b">MIVF</text>
<text x="534.4" y="394.0" font-family="system-ui,-apple-system,Segoe UI,sans-serif" font-size="12" text-anchor="middle" fill="#0b0b0b">3ds-fast profile</text>
<path d="M640.8000000000001,360.0 L640.8000000000001,218.1222785949707 Q640.8000000000001,214.1222785949707 644.8000000000001,214.1222785949707 L692.8000000000001,214.1222785949707 Q696.8000000000001,214.1222785949707 696.8000000000001,218.1222785949707 L696.8000000000001,360.0 Z" fill="#2a78d6"/>
<text x="668.8" y="206.1" font-family="system-ui,-apple-system,Segoe UI,sans-serif" font-size="13" font-weight="600" text-anchor="middle" fill="#0b0b0b">9.6 MiB</text>
<text x="668.8" y="380.0" font-family="system-ui,-apple-system,Segoe UI,sans-serif" font-size="12" text-anchor="middle" fill="#0b0b0b">MIVF</text>
<text x="668.8" y="394.0" font-family="system-ui,-apple-system,Segoe UI,sans-serif" font-size="12" text-anchor="middle" fill="#0b0b0b">smallest settings</text>
<rect x="64" y="430" width="12" height="12" rx="3" fill="#eda100"/>
<text x="82" y="440" font-family="system-ui,-apple-system,Segoe UI,sans-serif" font-size="12.5" fill="#0b0b0b">MoFlex</text>
<rect x="166" y="430" width="12" height="12" rx="3" fill="#2a78d6"/>
<text x="184" y="440" font-family="system-ui,-apple-system,Segoe UI,sans-serif" font-size="12.5" fill="#0b0b0b">MIVF</text>
</svg>