<svg viewBox="0 0 640 440" xmlns="http://www.w3.org/2000/svg" role="img" aria-label="Encode wall-time per mode (60s test clip, seconds)">
<rect width="640" height="440" fill="#1a1a19"/>
<text x="64" y="28" font-family="system-ui,-apple-system,Segoe UI,sans-serif" font-size="17" font-weight="600" fill="#ffffff">Encode wall-time per mode (60s test clip, seconds)</text>
<line x1="64" y1="364.0" x2="616" y2="364.0" stroke="#2c2c2a" stroke-width="1"/>
<text x="54" y="368.0" font-family="system-ui,-apple-system,Segoe UI,sans-serif" font-size="12" text-anchor="end" fill="#898781">0</text>
<line x1="64" y1="320.0" x2="616" y2="320.0" stroke="#2c2c2a" stroke-width="1"/>
<text x="54" y="324.0" font-family="system-ui,-apple-system,Segoe UI,sans-serif" font-size="12" text-anchor="end" fill="#898781">10</text>
<line x1="64" y1="276.0" x2="616" y2="276.0" stroke="#2c2c2a" stroke-width="1"/>
<text x="54" y="280.0" font-family="system-ui,-apple-system,Segoe UI,sans-serif" font-size="12" text-anchor="end" fill="#898781">20</text>
<line x1="64" y1="232.0" x2="616" y2="232.0" stroke="#2c2c2a" stroke-width="1"/>
<text x="54" y="236.0" font-family="system-ui,-apple-system,Segoe UI,sans-serif" font-size="12" text-anchor="end" fill="#898781">30</text>
<line x1="64" y1="188.0" x2="616" y2="188.0" stroke="#2c2c2a" stroke-width="1"/>
<text x="54" y="192.0" font-family="system-ui,-apple-system,Segoe UI,sans-serif" font-size="12" text-anchor="end" fill="#898781">40</text>
<line x1="64" y1="144.0" x2="616" y2="144.0" stroke="#2c2c2a" stroke-width="1"/>
<text x="54" y="148.0" font-family="system-ui,-apple-system,Segoe UI,sans-serif" font-size="12" text-anchor="end" fill="#898781">50</text>
<line x1="64" y1="100.0" x2="616" y2="100.0" stroke="#2c2c2a" stroke-width="1"/>
<text x="54" y="104.0" font-family="system-ui,-apple-system,Segoe UI,sans-serif" font-size="12" text-anchor="end" fill="#898781">60</text>
<line x1="64" y1="56.0" x2="616" y2="56.0" stroke="#2c2c2a" stroke-width="1"/>
<text x="54" y="60.0" font-family="system-ui,-apple-system,Segoe UI,sans-serif" font-size="12" text-anchor="end" fill="#898781">70</text>
<line x1="64" y1="364.0" x2="616" y2="364.0" stroke="#383835" stroke-width="1"/>
<path d="M158.0,364.0 L158.0,144.876 Q158.0,140.876 162.0,140.876 L178.0,140.876 Q182.0,140.876 182.0,144.876 L182.0,364.0 Z" fill="#3987e5"/>
<text x="170.0" y="134.9" font-family="system-ui,-apple-system,Segoe UI,sans-serif" font-size="10.5" text-anchor="middle" fill="#c3c2b7">50.7s</text>
<path d="M190.0,364.0 L190.0,205.06799999999998 Q190.0,201.06799999999998 194.0,201.06799999999998 L210.0,201.06799999999998 Q214.0,201.06799999999998 214.0,205.06799999999998 L214.0,364.0 Z" fill="#199e70"/>
<text x="202.0" y="195.1" font-family="system-ui,-apple-system,Segoe UI,sans-serif" font-size="10.5" text-anchor="middle" fill="#c3c2b7">37.0s</text>
<path d="M222.0,364.0 L222.0,202.736 Q222.0,198.736 226.0,198.736 L242.0,198.736 Q246.0,198.736 246.0,202.736 L246.0,364.0 Z" fill="#c98500"/>
<text x="234.0" y="192.7" font-family="system-ui,-apple-system,Segoe UI,sans-serif" font-size="10.5" text-anchor="middle" fill="#c3c2b7">37.6s</text>
<text x="202.0" y="384.0" font-family="system-ui,-apple-system,Segoe UI,sans-serif" font-size="12.5" text-anchor="middle" fill="#ffffff">Round 1</text>
<path d="M434.0,364.0 L434.0,113.196 Q434.0,109.196 438.0,109.196 L454.0,109.196 Q458.0,109.196 458.0,113.196 L458.0,364.0 Z" fill="#3987e5"/>
<text x="446.0" y="103.2" font-family="system-ui,-apple-system,Segoe UI,sans-serif" font-size="10.5" text-anchor="middle" fill="#c3c2b7">57.9s</text>
<path d="M466.0,364.0 L466.0,223.856 Q466.0,219.856 470.0,219.856 L486.0,219.856 Q490.0,219.856 490.0,223.856 L490.0,364.0 Z" fill="#199e70"/>
<text x="478.0" y="213.9" font-family="system-ui,-apple-system,Segoe UI,sans-serif" font-size="10.5" text-anchor="middle" fill="#c3c2b7">32.8s</text>
<path d="M498.0,364.0 L498.0,216.024 Q498.0,212.024 502.0,212.024 L518.0,212.024 Q522.0,212.024 522.0,216.024 L522.0,364.0 Z" fill="#c98500"/>
<text x="510.0" y="206.0" font-family="system-ui,-apple-system,Segoe UI,sans-serif" font-size="10.5" text-anchor="middle" fill="#c3c2b7">34.5s</text>
<text x="478.0" y="384.0" font-family="system-ui,-apple-system,Segoe UI,sans-serif" font-size="12.5" text-anchor="middle" fill="#ffffff">Round 2</text>
<rect x="64" y="406" width="12" height="12" rx="3" fill="#3987e5"/>
<text x="82" y="416" font-family="system-ui,-apple-system,Segoe UI,sans-serif" font-size="12.5" fill="#ffffff">full</text>
<rect x="144" y="406" width="12" height="12" rx="3" fill="#199e70"/>
<text x="162" y="416" font-family="system-ui,-apple-system,Segoe UI,sans-serif" font-size="12.5" fill="#ffffff">diamond</text>
<rect x="245" y="406" width="12" height="12" rx="3" fill="#c98500"/>
<text x="263" y="416" font-family="system-ui,-apple-system,Segoe UI,sans-serif" font-size="12.5" fill="#ffffff">hybrid</text>
</svg>